<svg id="Layer_2" data-name="Layer 2" xmlns="http://www.w3.org/2000/svg" viewBox="0 0 68.28 39.42"><title>Artboard 2</title><path d="M68.28,1V0H67.7L62.47,9.06,57.75,0H56.08l.25.47L51.06,9.6H40.85L46.08,1h0l.14-.23.16-.26h0L46.65,0H0V1L10.79,19.69H.29L0,19.19v1.5H10.77L5.55,29.31H0v1H4.94L0,38.45v1H46.65l5-8.58,4.48,8.58h1.67L63,30.31h5.27v-1H63l-5-8.62H68.28v-1.5L63,10.1,68.28,1ZM51.06,10.6l5,8.61H35l5.22-8.61Zm-17.5,9.11-5.23,9.06-4.72-9,5.27-9.12h10.2l-5.22,8.61h0l-.14.24-.15.25ZM33.85,1H44.91L39.68,9.6H28.88L23.9,1ZM22.47.5,28,10.1l-5.23,9-4.72-9h0L12.52.5ZM.87.5h10.5l5.54,9.6-5.25,9.09ZM11.94,20.69h0l.13-.23.16-.26h0l5.23-9.06,4.73,9-5.27,9.13H6.72Zm0,18.23H.89l5.22-8.61H16.92l5,8.61Zm11.38.48-5.54-9.59L23,20.75l4.73,9v0l5.54,9.59Zm11.1,0-5.54-9.59,5.25-9.1L44.93,39.4Zm11.37-.5L35,20.21H45.51l5.54,9.6Zm16.35-9.09-5.23,9.05-4.73-9h0l-5.54-9.6h10Zm5.26-10.12H57.46L51.92,10.1,57.15,1l4.73,9v0Z"/><polygon points="67.99 38.92 67.85 39.16 67.69 39.41 67.7 39.42 68.28 39.42 68.28 38.45 68 38.92 67.99 38.92"/></svg>